<?xml version="1.0" encoding="utf-8"?>
<!-- Generator: Adobe Illustrator 24.3.0, SVG Export Plug-In . SVG Version: 6.00 Build 0)  -->
<svg version="1.1"
	 id="svg2" sodipodi:docname="logo.eps" xmlns:cc="http://creativecommons.org/ns#" xmlns:dc="http://purl.org/dc/elements/1.1/" xmlns:inkscape="http://www.inkscape.org/namespaces/inkscape" xmlns:rdf="http://www.w3.org/1999/02/22-rdf-syntax-ns#" xmlns:sodipodi="http://sodipodi.sourceforge.net/DTD/sodipodi-0.dtd" xmlns:svg="http://www.w3.org/2000/svg"
	 xmlns="http://www.w3.org/2000/svg" xmlns:xlink="http://www.w3.org/1999/xlink" x="0px" y="0px" viewBox="0 0 258.7 258.7"
	 style="enable-background:new 0 0 258.7 258.7;" xml:space="preserve">
<style type="text/css">
	.st0{fill-rule:evenodd;clip-rule:evenodd;fill:#FFFFFF;}
	.st1{fill-rule:evenodd;clip-rule:evenodd;fill:#68AAD1;}
	.st2{fill-rule:evenodd;clip-rule:evenodd;fill:#0B0C0B;}
	.st3{fill-rule:evenodd;clip-rule:evenodd;fill:#286CBC;}
	.st4{fill-rule:evenodd;clip-rule:evenodd;fill:#F6BE2B;}
</style>
<sodipodi:namedview  bordercolor="#666666" borderopacity="1" gridtolerance="10" guidetolerance="10" id="namedview4" inkscape:pageopacity="0" inkscape:pageshadow="2" inkscape:window-height="480" inkscape:window-width="640" objecttolerance="10" pagecolor="#ffffff">
	</sodipodi:namedview>
<g id="g10" transform="matrix(1.3333333,0,0,-1.3333333,0,258.66667)" inkscape:groupmode="layer" inkscape:label="ink_ext_XXXXXX">
	<g id="g12" transform="scale(0.1)">
		<path id="path16" class="st0" d="M1160,201.8l-27.7,2.9c24,2.7,48.5,6.8,73.4,12.6C1190.2,211.8,1175,206.6,1160,201.8"/>
		<path id="path18" class="st1" d="M642.7,68.8c-2.2,19.7-3.9,33.1,20.2,54.8c6.5,2.7,14,8.7,20.9,8.5c142-4.2,381.2-46,727.1,148.4
			C1247.6,63.4,744.8-79.4,642.7,68.8"/>
		<path id="path20" class="st1" d="M394.3,1349.8c-175.5-27.2-400.5-209.9-384-298c42.8-41,95.4,9,138,80.6
			C194.4,1209.7,290.6,1296.3,394.3,1349.8"/>
		<path id="path22" class="st1" d="M254.3,1044.7C120.7,991.2-23.6,805.9,5.7,739.5c41.2-24.6,73.6,24.4,94.2,88.7
			C122.1,897.6,182.2,983.4,254.3,1044.7"/>
		<path id="path24" class="st2" d="M487.9,632c-101.6-44.8-201.7-103.8-246.3-152c23.9,156.9,76.7,309.4,170.9,400.3
			c-50-8.1-284.3-93.4-284.3-93.4c67.3,114.7,136.1,223.3,221,317.7c-57.2,11.2-113.5,8.5-171.3,1.1
			c95.7,97.9,206.4,202,322.9,244.1c-33.6,38.1-112.4,110.9-139.3,127.3c34.4,14.5,175.2,64.4,296.5,57.3
			c12.2,183.1,165.6,362.4,284.7,391.7l100-217.1c132.4,18.5,265.1,6.6,371.9-47.5l-4.9,47.6c73.7-28.3,175.1-103.3,263.6-198.3
			l182.6,63.5c12-101.3-3.2-181.8-42.6-257.1c30.1-58.1,49.7-117.2,52.7-173.6l-81.6-45c10.9-9,132.4-73.5,141.6-280.2
			c-2.4,0.2-60.6,15.2-65,13.1c-0.7-12.2-4.4-36.8-10.4-61.5c45.2-124.2,33-238.1,26.2-287c-1.8,7.6-59.7,68-93,99.8
			c-10-139.6-82-262.1-135.6-387.3c-4.8,67-5.1,124.8-23.2,188c-52.9-112.4-86.7-143.5-157.3-239.1c0,0-2.1,184.7-4.9,242.8
			c-273.3-248.2-586-137.4-686.2-103c45.8,13.6,80.5,26.2,120.5,53.9c-152.7-3.2-301.6,66.1-397.9,156.4l62.7,28.5
			C528.8,551.7,497.6,590.1,487.9,632"/>
		<path id="path26" class="st1" d="M375.6,504.2c8,11.1,24.3,10.1,43.6-15.5c25.7-34,151.3-253.4,584.3-299.4
			c-422.3-96.8-722.7,171.6-642,203.9c3,5.7,43.6-26.8,52.3-24.5C384.3,403,366.2,475.3,375.6,504.2"/>
		<path id="path28" class="st3" d="M1779.1,683.9c17.5-18.7,36-40.7,46.1-49.3c-1.2,15.1-5.4,37.6-12.8,62.6
			C1804.5,693.3,1793,688.8,1779.1,683.9z M1374.5,391.1c67.3,56.1,118.9,187.1,131.6,203.5l35.6-230.8
			c45.9,75.9,71.1,84.8,97.4,173.7c17.5-45.2,26.4-57.5,37.4-106.1c29.3,79.2,39.8,139.4,45.3,234c-81-25.1-181.2-48.2-255.1-66.1
			l-8.6-10C1422.3,548.1,1374.5,391.1,1374.5,391.1z M1716.5,1331.3c-27.9-25.5-53.7-51.6-66.6-69.4c12.4,37.7,28.9,71,47.3,100.2
			c-57.8,85.8-135.4,157.5-184.6,192l1-44.8c-116.5,92.9-297.6,136.8-451.2,113.9l-70.2-8.7l-90.1,198.7
			c-60.3-9.6-167.5-186.1-151.3-294c39.6-13.4,109.8-54.6,137.3-91.5c0,0-204.6,42.7-339.3,4.9c15.8-20,70.5-78.9,83-102.4
			c-79.7-19.9-173.4-64.4-258.8-149.8c43.4-4.8,89.7-17.9,131.6-32.1c-70.1-53.7-134.7-121.3-190.1-198.6l265.1,31.4
			c-15-19.6-142.5-133.6-216.5-332c31.4,11.2,126.2,74,266.7,35.1c-19.7-5.5-40.5-12.2-61.8-19.9c11.7-32.5,40.5-67.2,70.3-91.9
			c19.2,84,57.5,205.1,41.3,289.9l-92.1-105c27.2,225.7,109.3,399.6,229.1,493.3c-40.3-76.1-104.8-206.6-127.6-326.1l77.1,60.2
			c-3.6-130.4,16.6-138.6-65.7-467.9l-64.8-31.5c142.6-77.7,277.3-93.2,444.5-76.1c-32.2-33.1-59.3-71.8-95.6-100.8
			c82.7-6.4,238.6,16.1,308.2,74.6C1146.6,497.3,1018.9,511,872.5,528.7c-35.1,4.3-79.7,10.7-114.1,0.1
			c167.5,321.1-4.1,558.2,108.1,791.3l95.8-10.8l-80.4,73.9c115.1,42,166.6,29.9,200.6,36.1l29,186l360-326.2l98.1-35.8l45,98.1
			l39.8-136l24.3-10.9l85,27.3C1754.1,1259.3,1737.3,1296.2,1716.5,1331.3L1716.5,1331.3z M941.1,1539.5L830,1497.1
			c0,0-41,97.8,44.7,226.6L941.1,1539.5z M1223.2,1599.1c0,0,97.3-20.9,181.6-107.5l16.7,48.1c41.1-40.8,119.6-134.4,139.8-272.6
			c-22.9,47.4-110.6,153.5-135.9,175.5l-14.5-80.6C1363.9,1445.1,1291.1,1553.5,1223.2,1599.1z M538.9,1010.6
			c0,0,3.6,99.5,74.4,197.4l-50.3,8c33.1,47.6,111.6,141.2,244.1,185c-42.7-30.7-132-135.4-149.3-164.3l81.8-0.3
			C666.2,1175.9,624.2,1128.4,538.9,1010.6z M1058.5,1465.6l7.3,58c-59.3-6.4-108.3-29.2-154.7-67.7
			C1029.5,1468,1044.3,1465.6,1058.5,1465.6L1058.5,1465.6z M1723.1,1453.5c15-18.5,29.3-37.7,42.6-57.1
			c12.7,31.8,14.7,57.4,2.5,73.2L1723.1,1453.5"/>
		<path id="path30" class="st0" d="M1223.9,1068.5c1.2,0-64.9-4.3-174.1-90.3l-12.4-75.9l83.3,97.3l7.4-86.8l77.9,79.3l-57.2-187.3
			l163.1,158.5L1286.1,853l80.7,55l-16.4-108.9l76.9,64.5l-15.8-102.1l80.4,78.1l-75.7-181.9l201.8,177.8l-168.2,21.7
			C1410.1,924.5,1279.1,1062.4,1223.9,1068.5L1223.9,1068.5z M1040.7,729.5l-92.3-113l-33.7,64.1L863.1,591
			c9.4,0.2,61.8-3.1,61.8-3.1c22-1.1,44.5-4,66-8.1l-2.1,1.7c88.2-9.8,234.7-39.1,299.1-101.3l72.3,115.6L1235.7,540l16.3,81.3
			l-66.6-51.6l-4.6,78.6l-64.8-56.4l-14,77l-64.9-58.7L1040.7,729.5"/>
		<path id="path32" class="st3" d="M1544.5,1181.8l88.9-79.6l88,10.4L1544.5,1181.8z"/>
		<path id="path34" class="st4" d="M1154.8,1392.6c59.3-8.4,124.3-31,179.2-55.2l-133.3,107.6L1154.8,1392.6"/>
		<path id="path36" class="st0" d="M1307,1197.6l-2.9-61.7c-47.2,56.2-139.5,121.5-230.2,173.9
			C1151.4,1279.3,1239.2,1245.5,1307,1197.6L1307,1197.6z M1425,1184.8l-2.9-61.7c-47.2,56.2-139.5,121.5-230.3,173.9
			C1269.2,1266.5,1357,1232.8,1425,1184.8L1425,1184.8z M1577.3,715.3c80.6,19.1,106.3,32,186.3,60.6c24.9,31,22.8,116.5,13.3,152.5
			c22.4-3.9,45.5-8.4,65.2-20.6c-9.9,26.1-22.7,49.5-38.6,70.2c-47.5-1.8-110.1-3.5-111.8-4.9l40.6,38.6l39.6,0.3
			c-11.9,10.7-25,20.5-39.5,29.5l-117.5-49.2l38.5,43.7l-66.5,7.9l-67.9,70.7l-38.2-68.6l-24.2,148.5l37.4,1.7
			c-158.7,113.1-325.4,142.5-484.3,141.6c28.1-21.1,85.3-74.4,126.4-122.6c-53.7,15.3-194.1,33.1-223.9,30.7
			c-28.3-116.5-6.4-189.2-5.8-295.8c94.3,124,174.9,167.5,328.4,201.9c85.1-47.7,216.5-140.8,255.1-230.6l80.5,100.2L1538,907
			l194.8-12.1C1704.5,824.4,1589.3,729,1577.3,715.3"/>
		<path id="path38" class="st0" d="M526.5,1140.9c-53.9-44.6-119.8-105.4-164.2-159.8l67.9,4.4
			C456.5,1031.4,500.2,1105.9,526.5,1140.9"/>
		<path id="path40" class="st0" d="M564.8,923.1c-70.1-64.5-129.2-164.2-163-237.6l72.3,21.9C480.5,738.1,520,863.9,564.8,923.1"/>
		<path id="path42" class="st0" d="M430.1,1200c55.8,40.5,93.1,75.6,175.1,102.9c-62.4-40.5-106.3-74.1-131.3-113.9L430.1,1200"/>
		<path id="path44" class="st0" d="M813.2,1508.7c-16.9,7.4-33,16.6-49.2,25.2c-6.7,85.8,68.9,216.8,118.2,250.7
			C844.3,1719.1,774.6,1588.5,813.2,1508.7"/>
		<path id="path46" class="st0" d="M706,482l35,17.5c77.4-47.1,181.3-50,269.3-59.1C922.1,414.7,788.4,441.7,706,482"/>
		<path id="path48" class="st0" d="M1531.4,584.8l28.4-155.4l30.6,50.4C1580.6,507.8,1556.7,567.6,1531.4,584.8"/>
		<path id="path50" class="st1" d="M936.7,1222c6.7-28.6,14-76,23.9-117.3c25.5,13.4,115.2,59.9,239.3,59.9
			c-199.8-48.4-247.7-125.6-268.4-146.3l0.2,3.2C922.7,1109,924.6,1161.5,936.7,1222"/>
		<path id="path52" class="st1" d="M615.9,1566c-118,48.1-323.6,18.8-345.9-41.3c11.1-41,58.2-21.2,114.5-1.5
			C459.9,1549.8,550,1567.8,615.9,1566"/>
	</g>
</g>
</svg>
